<?xml version="1.0" encoding="UTF-8"?>
<svg version="1.1" xmlns="http://www.w3.org/2000/svg" width="200" height="200">
<path d="M0 0 C1.20527344 -0.02835938 2.41054687 -0.05671875 3.65234375 -0.0859375 C7.80699302 0.47563021 9.26821896 1.25830192 12.0625 4.375 C13.31147494 7.05009931 14.10820266 9.77905053 14.875 12.625 C15.19887695 13.74261719 15.19887695 13.74261719 15.52929688 14.8828125 C16.05610334 16.70907492 16.56148396 18.5414945 17.0625 20.375 C17.330625 19.73433594 17.59875 19.09367187 17.875 18.43359375 C21.4875046 10.45994049 25.65734564 5.41071527 33.671875 1.70703125 C38.59434859 -0.03619017 43.32413145 -0.06717061 48.5 0 C49.39009766 -0.01160156 50.28019531 -0.02320313 51.19726562 -0.03515625 C57.10417375 -0.00926768 62.75124279 0.6018337 68.0625 3.375 C70.0625 6.375 70.0625 6.375 69.48828125 9.66015625 C69.12089844 10.90667969 68.75351563 12.15320313 68.375 13.4375 C68.02050781 14.68660156 67.66601562 15.93570313 67.30078125 17.22265625 C66.0625 20.375 66.0625 20.375 63.0625 22.375 C60.609375 21.6953125 60.609375 21.6953125 57.8125 20.5 C52.20263535 18.30934045 47.9699992 17.38521304 42.125 19.375 C41.444375 19.705 40.76375 20.035 40.0625 20.375 C39.39095316 22.65841743 39.39095316 22.65841743 40.0625 25.375 C43.79611133 28.25299207 47.74389956 30.23289999 51.98046875 32.2578125 C52.68107422 32.59643311 53.38167969 32.93505371 54.10351562 33.28393555 C55.50779337 33.95684525 56.91914821 34.61522853 58.33789062 35.25708008 C64.67052432 38.26324198 68.962457 42.54277648 71.5546875 49.26171875 C73.18122083 56.03059977 73.12295702 63.41189644 69.515625 69.49609375 C63.0730971 77.8263516 55.96669943 81.55465546 45.75 83.125 C42.75576258 83.32799915 40.82636108 83.41144791 38.0625 82.375 C38.248125 83.179375 38.43375 83.98375 38.625 84.8125 C38.8415625 86.0809375 38.8415625 86.0809375 39.0625 87.375 C36.75096947 89.68653053 31.28957644 88.65532078 28.1875 88.6875 C27.26324219 88.71650391 26.33898437 88.74550781 25.38671875 88.77539062 C24.49855469 88.78376953 23.61039063 88.79214844 22.6953125 88.80078125 C21.87949707 88.81536377 21.06368164 88.82994629 20.22314453 88.8449707 C18.0625 88.375 18.0625 88.375 16.38696289 86.68725586 C14.9282723 84.14066441 14.06719633 81.76830829 13.23828125 78.953125 C12.93212891 77.92832031 12.62597656 76.90351563 12.31054688 75.84765625 C11.84745117 74.25244141 11.84745117 74.25244141 11.375 72.625 C11.05466797 71.54605469 10.73433594 70.46710938 10.40429688 69.35546875 C9.61631229 66.69749089 8.83842346 64.03652377 8.0625 61.375 C2.1225 61.375 -3.8175 61.375 -9.9375 61.375 C-10.40800781 62.65117188 -10.87851563 63.92734375 -11.36328125 65.2421875 C-11.99167495 66.91165135 -12.62060936 68.58091174 -13.25 70.25 C-13.55873047 71.09175781 -13.86746094 71.93351562 -14.18554688 72.80078125 C-14.49169922 73.60644531 -14.79785156 74.41210938 -15.11328125 75.2421875 C-15.39083252 75.98581543 -15.66838379 76.72944336 -15.9543457 77.49560547 C-16.9375 79.375 -16.9375 79.375 -19.9375 81.375 C-21.83862305 81.60205078 -21.83862305 81.60205078 -23.94921875 81.5703125 C-25.08520508 81.56064453 -25.08520508 81.56064453 -26.24414062 81.55078125 C-27.42266602 81.52564453 -27.42266602 81.52564453 -28.625 81.5 C-29.42228516 81.49097656 -30.21957031 81.48195313 -31.04101562 81.47265625 C-33.006639 81.44911585 -34.97210775 81.41324547 -36.9375 81.375 C-38.23267816 77.48946553 -37.09931657 75.13615792 -35.796875 71.4375 C-35.55882141 70.73698013 -35.32076782 70.03646027 -35.07550049 69.31471252 C-34.28730785 66.99872724 -33.48735376 64.68698107 -32.6875 62.375 C-31.57263854 59.11513545 -30.46489809 55.85288591 -29.359375 52.58984375 C-29.07509644 51.75251205 -28.79081787 50.91518036 -28.4979248 50.05247498 C-26.51807582 44.18772185 -24.64167254 38.29705716 -22.828125 32.37890625 C-22.58245789 31.58003998 -22.33679077 30.78117371 -22.0836792 29.95809937 C-21.13287417 26.86054185 -20.18393712 23.76266886 -19.25671387 20.65795898 C-18.61808713 18.52027955 -17.96633334 16.38697448 -17.3125 14.25390625 C-16.94898437 13.0429126 -16.58546875 11.83191895 -16.2109375 10.58422852 C-14.62968588 6.59926829 -12.64092785 3.58388428 -9.12109375 1.0859375 C-6.04148269 0.08327343 -3.23364501 0.03451062 0 0 Z M18.0625 22.375 C18.3925 24.355 18.7225 26.335 19.0625 28.375 C19.3925 27.385 19.7225 26.395 20.0625 25.375 C19.4025 24.385 18.7425 23.395 18.0625 22.375 Z M-1.9375 29.375 C-2.61010351 31.14358691 -3.27538395 32.91496016 -3.9375 34.6875 C-4.30875 35.67363281 -4.68 36.65976563 -5.0625 37.67578125 C-6.09168502 40.37771656 -6.09168502 40.37771656 -5.9375 43.375 C-2.9675 43.375 0.0025 43.375 3.0625 43.375 C1.58118325 36.21707314 1.58118325 36.21707314 -0.9375 29.375 C-1.2675 29.375 -1.5975 29.375 -1.9375 29.375 Z M20.0625 29.375 C20.3925 31.025 20.7225 32.675 21.0625 34.375 C21.3925 33.385 21.7225 32.395 22.0625 31.375 C21.4025 30.715 20.7425 30.055 20.0625 29.375 Z M24.0625 40.375 C24.76093087 45.71239149 26.30031707 50.60475512 28 55.6875 C28.26490234 56.51056641 28.52980469 57.33363281 28.80273438 58.18164062 C29.06248047 58.96345703 29.32222656 59.74527344 29.58984375 60.55078125 C29.82437256 61.26145752 30.05890137 61.97213379 30.30053711 62.7043457 C30.94342192 64.5772133 30.94342192 64.5772133 33.0625 65.375 C35.16828483 65.36350868 37.27402856 65.26776137 39.375 65.125 C40.50550781 65.05796875 41.63601562 64.9909375 42.80078125 64.921875 C46.26259887 64.34145049 48.28951753 63.5057108 51.0625 61.375 C51.97988597 58.46250447 51.97988597 58.46250447 51.0625 55.375 C46.79196898 51.22272984 42.48114354 48.96088143 37 46.75 C32.47484642 44.88447707 28.19767811 43.0350561 24.0625 40.375 Z M33.0625 69.375 C34.0625 71.375 34.0625 71.375 34.0625 71.375 Z M34.0625 71.375 C35.0625 74.375 35.0625 74.375 35.0625 74.375 Z M35.0625 75.375 C36.0625 77.375 36.0625 77.375 36.0625 77.375 Z M36.0625 77.375 C37.0625 80.375 37.0625 80.375 37.0625 80.375 Z " fill="#20A9B8" transform="translate(97.9375,55.625)"/>
<path d="M0 0 C1 1 1 1 1.09765625 3.59423828 C1.08605469 4.74134277 1.07445313 5.88844727 1.0625 7.0703125 C1.05387939 8.34914307 1.04525879 9.62797363 1.03637695 10.94555664 C1.02702621 11.96892624 1.02702621 11.96892624 1.01748657 13.01296997 C0.92901875 23.69812335 0.93795253 34.38259691 1.3125 45.0625 C1.33505859 45.98756348 1.35761719 46.91262695 1.38085938 47.86572266 C1.58920382 52.92186359 2.13824127 56.6566215 5 61 C8.22478677 63.12835927 10.44907547 64.16230606 14.3515625 63.75390625 C17.87979673 62.82967802 17.87979673 62.82967802 21 61 C24.1701189 55.17038537 24.42748406 50.20233085 24.40625 43.6484375 C24.41708618 42.67137848 24.42792236 41.69431946 24.43908691 40.68765259 C24.48475958 36.53139847 24.49644108 32.37521012 24.51123047 28.21875 C24.52692865 25.1742539 24.55992016 22.13027737 24.59375 19.0859375 C24.59072876 18.14938324 24.58770752 17.21282898 24.58459473 16.24789429 C24.65357028 10.25863186 25.5318233 6.87953948 29.5 2.25 C32.40326144 -0.16938453 35.44313338 -0.18603476 39.0625 -0.25 C39.94035156 -0.27578125 40.81820312 -0.3015625 41.72265625 -0.328125 C42.47417969 -0.21984375 43.22570312 -0.1115625 44 0 C46.04834923 3.07252384 46.25003064 3.68085626 46.23046875 7.140625 C46.22853516 7.965625 46.22660156 8.790625 46.22460938 9.640625 C46.21236328 10.50171875 46.20011719 11.3628125 46.1875 12.25 C46.1865332 13.47203125 46.1865332 13.47203125 46.18554688 14.71875 C46.16647873 17.4815121 46.08635212 20.23853108 46 23 C45.98453125 24.12857422 45.9690625 25.25714844 45.953125 26.41992188 C45.59359132 36.71021157 43.0442605 45.36886457 39.625 55 C39.12336952 56.46168104 38.62336256 57.92392028 38.125 59.38671875 C32.01773324 77.15751958 32.01773324 77.15751958 29.1171875 79.55859375 C19.67301238 83.26057877 7.99725848 83.87667816 -1.625 80.375 C-10.07391997 76.24377937 -14.67186549 70.80023581 -18 62 C-20.01469372 55.39210357 -20.26425488 49.38266911 -20.1953125 42.5 C-20.1924826 41.42371338 -20.18965271 40.34742676 -20.18673706 39.23852539 C-20.17560731 35.82556701 -20.15051595 32.4128781 -20.125 29 C-20.11496089 26.67578506 -20.10583667 24.35156598 -20.09765625 22.02734375 C-20.0756916 16.35147169 -20.04228625 10.67575511 -20 5 C-5.88994177 -2.10355063 -5.88994177 -2.10355063 0 0 Z " fill="#27B8C0" transform="translate(27,56)"/>
<path d="M0 0 C0.87785156 -0.02578125 1.75570312 -0.0515625 2.66015625 -0.078125 C3.41167969 0.03015625 4.16320312 0.1384375 4.9375 0.25 C6.98584923 3.32252384 7.18753064 3.93085626 7.16796875 7.390625 C7.16603516 8.215625 7.16410156 9.040625 7.16210938 9.890625 C7.14374023 11.18226562 7.14374023 11.18226562 7.125 12.5 C7.12435547 13.3146875 7.12371094 14.129375 7.12304688 14.96875 C7.10397873 17.7315121 7.02385212 20.48853108 6.9375 23.25 C6.92203125 24.37857422 6.9065625 25.50714844 6.890625 26.66992188 C6.53109132 36.96021157 3.9817605 45.61886457 0.5625 55.25 C0.06086952 56.71168104 -0.43913744 58.17392028 -0.9375 59.63671875 C-7.04476676 77.40751958 -7.04476676 77.40751958 -9.9453125 79.80859375 C-19.60329877 83.59438976 -31.30139186 84.10553845 -41.0625 80.375 C-44.86775164 78.63949672 -44.86775164 78.63949672 -46.0625 76.25 C-43.51776529 76.68624024 -41.33380545 77.11512244 -39.01171875 78.26953125 C-34.70135912 79.70251174 -30.57461952 79.57884826 -26.0625 79.5625 C-25.17304687 79.57861328 -24.28359375 79.59472656 -23.3671875 79.61132812 C-18.42888122 79.61501343 -15.09768983 79.43611863 -11.0625 76.25 C-12.0525 75.59 -13.0425 74.93 -14.0625 74.25 C-13.0725 73.59 -12.0825 72.93 -11.0625 72.25 C-10.0725 70.765 -10.0725 70.765 -9.0625 69.25 C-10.0525 68.26 -10.0525 68.26 -11.0625 67.25 C-11.6875 64.625 -11.6875 64.625 -12.0625 62.25 C-12.3925 63.24 -12.7225 64.23 -13.0625 65.25 C-13.6915625 65.35957031 -14.320625 65.46914062 -14.96875 65.58203125 C-20.62873682 66.63049266 -25.7319886 68.07831017 -31.0625 70.25 C-34.77319698 66.25386479 -36.66041618 63.87917348 -37.0625 58.25 C-36.19625 59.054375 -35.33 59.85875 -34.4375 60.6875 C-31.34949383 63.22588446 -29.16432708 64.25 -25.0625 64.25 C-21.29769854 63.41033874 -21.29769854 63.41033874 -18.0625 61.25 C-14.8073118 55.48536793 -14.63511728 50.42105236 -14.65625 43.8984375 C-14.64541382 42.92137848 -14.63457764 41.94431946 -14.62341309 40.93765259 C-14.57774042 36.78139847 -14.56605892 32.62521012 -14.55126953 28.46875 C-14.53557135 25.4242539 -14.50257984 22.38027737 -14.46875 19.3359375 C-14.47177124 18.39938324 -14.47479248 17.46282898 -14.47790527 16.49789429 C-14.40892972 10.50863186 -13.5306767 7.12953948 -9.5625 2.5 C-6.65923856 0.08061547 -3.61936662 0.06396524 0 0 Z " fill="#1A97AB" transform="translate(66.0625,55.75)"/>
<path d="M0 0 C0.74886475 0.00523682 1.49772949 0.01047363 2.26928711 0.01586914 C3.07817383 0.0190918 3.88706055 0.02231445 4.72045898 0.02563477 C5.5705957 0.03401367 6.42073242 0.04239258 7.29663086 0.05102539 C8.15063477 0.05553711 9.00463867 0.06004883 9.88452148 0.06469727 C12.00108749 0.07652166 14.11761771 0.0944577 16.23413086 0.11352539 C17.39979897 2.4448616 17.38495165 3.8697238 17.42700195 6.46801758 C17.45109634 7.82017365 17.45109634 7.82017365 17.47567749 9.199646 C17.52015703 13.32913469 17.56120292 17.45846242 17.58422852 21.58813477 C17.60077646 23.76467591 17.62805097 25.94116298 17.66625977 28.11743164 C17.72109802 31.25704111 17.7429147 34.39537612 17.75756836 37.53540039 C17.78023773 38.50435242 17.8029071 39.47330444 17.82626343 40.47161865 C17.81221444 44.97732295 17.72749691 48.12260171 14.82641602 51.7121582 C11.01996558 55.23826919 9.20926958 55.23028219 4.10913086 55.17602539 C3.01342773 55.16700195 1.91772461 55.15797852 0.78881836 55.14868164 C-0.05422852 55.13708008 -0.89727539 55.12547852 -1.76586914 55.11352539 C-3.01513371 52.61499625 -2.89283661 50.92424867 -2.89526367 48.12890625 C-2.89841583 47.0912059 -2.90156799 46.05350555 -2.90481567 44.98435974 C-2.90279144 43.86038284 -2.90076721 42.73640594 -2.89868164 41.57836914 C-2.89963837 40.42937637 -2.90059509 39.28038361 -2.90158081 38.09657288 C-2.90226219 35.66464178 -2.90041081 33.23270887 -2.89624023 30.80078125 C-2.89088657 27.06319121 -2.89618918 23.32572107 -2.90258789 19.58813477 C-2.9019272 17.23071262 -2.90064622 14.87329056 -2.89868164 12.51586914 C-2.90070587 11.38986801 -2.9027301 10.26386688 -2.90481567 9.10374451 C-2.90166351 8.06919632 -2.89851135 7.03464813 -2.89526367 5.96875 C-2.89446808 5.05322861 -2.89367249 4.13770721 -2.89285278 3.19444275 C-2.73418547 0.59431599 -2.6112323 0.16787267 0 0 Z " fill="#27A8B5" transform="translate(175.765869140625,81.886474609375)"/>
<path d="M0 0 C1.20527344 -0.02835938 2.41054687 -0.05671875 3.65234375 -0.0859375 C7.91701565 0.49050154 9.24650013 1.09924505 12.0625 4.375 C13.65950003 7.9928697 14.77465033 11.7058583 15.875 15.5 C16.34196289 17.02173828 16.34196289 17.02173828 16.81835938 18.57421875 C19.0625 25.9823489 19.0625 25.9823489 19.0625 28.375 C16.625 27.5625 16.625 27.5625 14.0625 26.375 C12.0625 20.375 12.0625 20.375 11.625 17.8125 C11.25131212 15.2104795 11.25131212 15.2104795 9.0625 13.375 C8.8671875 11.2109375 8.8671875 11.2109375 8.9375 8.75 C8.95554688 7.93273438 8.97359375 7.11546875 8.9921875 6.2734375 C9.01539063 5.64695312 9.03859375 5.02046875 9.0625 4.375 C6.85479195 4.29334504 4.64619575 4.23551512 2.4375 4.1875 C1.20773438 4.15269531 -0.02203125 4.11789063 -1.2890625 4.08203125 C-5.23196803 4.39864572 -7.59545712 5.30010631 -10.9375 7.375 C-11.78061576 9.24683587 -11.78061576 9.24683587 -11.9375 11.375 C-12.25203125 12.13167969 -12.5665625 12.88835937 -12.890625 13.66796875 C-13.95178257 16.41193216 -14.4767641 18.91233208 -14.9375 21.8125 C-15.62319827 25.83490326 -16.56256891 29.52519296 -17.9375 33.375 C-19.00128581 37.07529272 -19.00128581 37.07529272 -18 40.6875 C-17.649375 41.244375 -17.29875 41.80125 -16.9375 42.375 C-17.9275 42.375 -18.9175 42.375 -19.9375 42.375 C-19.6075 43.365 -19.2775 44.355 -18.9375 45.375 C-19.85789062 45.9628125 -19.85789062 45.9628125 -20.796875 46.5625 C-23.30067235 48.6825036 -24.04356041 50.32449442 -25.1875 53.375 C-25.52265625 54.24125 -25.8578125 55.1075 -26.203125 56 C-27.08520529 58.43836072 -27.08520529 58.43836072 -26.9375 61.375 C-27.2675 62.035 -27.5975 62.695 -27.9375 63.375 C-27.4425 64.86 -27.4425 64.86 -26.9375 66.375 C-27.5975 66.375 -28.2575 66.375 -28.9375 66.375 C-28.6075 68.025 -28.2775 69.675 -27.9375 71.375 C-28.576875 71.6225 -29.21625 71.87 -29.875 72.125 C-32.42769039 73.34121634 -32.42769039 73.34121634 -32.9375 77.375 C-28.6475 77.375 -24.3575 77.375 -19.9375 77.375 C-19.6075 76.715 -19.2775 76.055 -18.9375 75.375 C-18.2775 75.375 -17.6175 75.375 -16.9375 75.375 C-16.81375 74.34375 -16.69 73.3125 -16.5625 72.25 C-15.99860186 68.75383154 -15.15067941 65.69102373 -13.9375 62.375 C-13.2775 62.705 -12.6175 63.035 -11.9375 63.375 C-13.01162729 69.48056566 -14.51200212 75.12970637 -17.9375 80.375 C-21.24744713 82.02997356 -24.92873 81.47584335 -28.5625 81.4375 C-29.36429688 81.43298828 -30.16609375 81.42847656 -30.9921875 81.42382812 C-32.97399006 81.41203168 -34.95575433 81.39409605 -36.9375 81.375 C-38.23267816 77.48946553 -37.09931657 75.13615792 -35.796875 71.4375 C-35.55882141 70.73698013 -35.32076782 70.03646027 -35.07550049 69.31471252 C-34.28730785 66.99872724 -33.48735376 64.68698107 -32.6875 62.375 C-31.57263854 59.11513545 -30.46489809 55.85288591 -29.359375 52.58984375 C-29.07509644 51.75251205 -28.79081787 50.91518036 -28.4979248 50.05247498 C-26.51807582 44.18772185 -24.64167254 38.29705716 -22.828125 32.37890625 C-22.58245789 31.58003998 -22.33679077 30.78117371 -22.0836792 29.95809937 C-21.13287417 26.86054185 -20.18393712 23.76266886 -19.25671387 20.65795898 C-18.61808713 18.52027955 -17.96633334 16.38697448 -17.3125 14.25390625 C-16.94898437 13.0429126 -16.58546875 11.83191895 -16.2109375 10.58422852 C-14.62968588 6.59926829 -12.64092785 3.58388428 -9.12109375 1.0859375 C-6.04148269 0.08327343 -3.23364501 0.03451062 0 0 Z " fill="#32BDC3" transform="translate(97.9375,55.625)"/>
<path d="M0 0 C1.08667969 0.01804688 2.17335937 0.03609375 3.29296875 0.0546875 C4.54013672 0.08949219 4.54013672 0.08949219 5.8125 0.125 C7.00057993 2.50115986 6.94164522 3.9761742 6.9453125 6.625 C6.94724609 7.9553125 6.94724609 7.9553125 6.94921875 9.3125 C6.94535156 10.240625 6.94148438 11.16875 6.9375 12.125 C6.94330078 13.5171875 6.94330078 13.5171875 6.94921875 14.9375 C6.94792969 15.824375 6.94664062 16.71125 6.9453125 17.625 C6.94418457 18.4396875 6.94305664 19.254375 6.94189453 20.09375 C6.8125 22.125 6.8125 22.125 5.8125 24.125 C3.02130221 24.34614415 0.2303788 24.55243301 -2.5625 24.75 C-3.3565625 24.81445312 -4.150625 24.87890625 -4.96875 24.9453125 C-7.03778224 25.08558587 -9.11375536 25.11258237 -11.1875 25.125 C-14.09624538 22.21625462 -13.55557007 19.20365513 -13.5625 15.3125 C-13.58699219 14.60029297 -13.61148438 13.88808594 -13.63671875 13.15429688 C-13.65707427 9.48691117 -13.3342629 7.35576124 -11.3515625 4.23828125 C-7.47552711 0.45319976 -5.30220077 -0.11402582 0 0 Z " fill="#269FAD" transform="translate(186.1875,55.875)"/>
<path d="M0 0 C0.87785156 -0.02578125 1.75570312 -0.0515625 2.66015625 -0.078125 C3.41167969 0.03015625 4.16320312 0.1384375 4.9375 0.25 C6.98584923 3.32252384 7.18753064 3.93085626 7.16796875 7.390625 C7.16716309 8.20611816 7.16635742 9.02161133 7.16552734 9.86181641 C7.15215332 10.73241699 7.1387793 11.60301758 7.125 12.5 C7.10880615 13.85037354 7.10880615 13.85037354 7.09228516 15.22802734 C7.06471997 17.05349122 7.030913 18.87887201 6.99072266 20.70410156 C6.95823921 22.25794256 6.93477664 23.81204869 6.92724609 25.36621094 C6.87310172 36.49715526 3.79550291 45.95019407 -0.0625 56.25 C-0.3925 56.25 -0.7225 56.25 -1.0625 56.25 C-1.25544408 51.42639811 -0.81997614 47.75353262 0.9375 43.25 C-0.0525 42.92 -1.0425 42.59 -2.0625 42.25 C-1.588125 41.899375 -1.11375 41.54875 -0.625 41.1875 C1.61623825 38.40836457 1.60867658 35.7355283 1.9375 32.25 C2.5975 32.25 3.2575 32.25 3.9375 32.25 C3.6075 22.68 3.2775 13.11 2.9375 3.25 C-5.2449771 3.54312307 -5.2449771 3.54312307 -8.59570312 5.72875977 C-10.84685995 9.59821659 -10.58789827 13.19020328 -10.53125 17.58984375 C-10.53829956 18.50778214 -10.54534912 19.42572052 -10.5526123 20.37147522 C-10.5819822 24.28694293 -10.56562078 28.20190982 -10.55322266 32.11743164 C-10.5336739 55.33940009 -10.5336739 55.33940009 -15.0625 64.25 C-17.89886599 66.14091066 -19.27163229 66.6402577 -22.5 67.25 C-25.67663201 67.85200133 -28.22022791 68.69613827 -31.0625 70.25 C-34.77319698 66.25386479 -36.66041618 63.87917348 -37.0625 58.25 C-36.19625 59.054375 -35.33 59.85875 -34.4375 60.6875 C-31.34949383 63.22588446 -29.16432708 64.25 -25.0625 64.25 C-21.29769854 63.41033874 -21.29769854 63.41033874 -18.0625 61.25 C-14.8073118 55.48536793 -14.63511728 50.42105236 -14.65625 43.8984375 C-14.64541382 42.92137848 -14.63457764 41.94431946 -14.62341309 40.93765259 C-14.57774042 36.78139847 -14.56605892 32.62521012 -14.55126953 28.46875 C-14.53557135 25.4242539 -14.50257984 22.38027737 -14.46875 19.3359375 C-14.47177124 18.39938324 -14.47479248 17.46282898 -14.47790527 16.49789429 C-14.40892972 10.50863186 -13.5306767 7.12953948 -9.5625 2.5 C-6.65923856 0.08061547 -3.61936662 0.06396524 0 0 Z " fill="#3F8E9E" transform="translate(66.0625,55.75)"/>
<path d="M0 0 C1.22332031 -0.03738281 2.44664063 -0.07476562 3.70703125 -0.11328125 C8.03338531 0.41598092 9.34604839 0.99100793 12.1875 4.3125 C13.7837447 7.93072953 14.8996377 11.64331478 16 15.4375 C16.46696289 16.95923828 16.46696289 16.95923828 16.94335938 18.51171875 C19.1875 25.9198489 19.1875 25.9198489 19.1875 28.3125 C16.75 27.5 16.75 27.5 14.1875 26.3125 C12.1875 20.3125 12.1875 20.3125 11.75 17.75 C11.37631212 15.1479795 11.37631212 15.1479795 9.1875 13.3125 C8.9921875 11.1484375 8.9921875 11.1484375 9.0625 8.6875 C9.08054687 7.87023438 9.09859375 7.05296875 9.1171875 6.2109375 C9.14039062 5.58445312 9.16359375 4.95796875 9.1875 4.3125 C6.97979195 4.23084504 4.77119575 4.17301512 2.5625 4.125 C1.33273438 4.09019531 0.10296875 4.05539063 -1.1640625 4.01953125 C-5.10696803 4.33614572 -7.47045712 5.23760631 -10.8125 7.3125 C-11.65561576 9.18433587 -11.65561576 9.18433587 -11.8125 11.3125 C-12.12960938 12.06402344 -12.44671875 12.81554687 -12.7734375 13.58984375 C-14.18494476 17.28841727 -14.5571772 20.97544097 -15.0546875 24.88671875 C-15.8125 27.3125 -15.8125 27.3125 -17.8828125 28.64453125 C-18.51960938 28.86496094 -19.15640625 29.08539063 -19.8125 29.3125 C-21.41139622 24.51581133 -19.2457695 20.54666682 -17.6875 15.875 C-17.39101562 14.92044922 -17.09453125 13.96589844 -16.7890625 12.98242188 C-15.05574822 7.73473944 -13.79184223 4.24296534 -8.8125 1.3125 C-5.89002427 -0.14873786 -3.25396161 0.0647385 0 0 Z " fill="#49ADB4" transform="translate(97.8125,55.6875)"/>
<path d="M0 0 C0.66 0 1.32 0 2 0 C2 0.66 2 1.32 2 2 C2.99 2.33 3.98 2.66 5 3 C4.938125 4.2375 4.87625 5.475 4.8125 6.75 C4.80581397 10.56103608 5.47702567 12.08887577 8 15 C8.33 16.03125 8.66 17.0625 9 18.125 C9.77529656 21.28615876 9.77529656 21.28615876 13 23 C13 23.66 13 24.32 13 25 C15.64 25.33 18.28 25.66 21 26 C21 24.68 21 23.36 21 22 C21.66 22 22.32 22 23 22 C23 21.34 23 20.68 23 20 C22.34 20 21.68 20 21 20 C21 19.34 21 18.68 21 18 C21.66 18 22.32 18 23 18 C22.34 17.01 21.68 16.02 21 15 C20.63837971 13.67405895 20.30271961 12.34061543 20 11 C19.67 10.34 19.34 9.68 19 9 C19.33 8.01 19.66 7.02 20 6 C20.66 6 21.32 6 22 6 C24.63635221 8.87908541 25.63378109 11.5604756 26.5625 15.3125 C26.80742187 16.27414063 27.05234375 17.23578125 27.3046875 18.2265625 C27.64886719 19.59941406 27.64886719 19.59941406 28 21 C28.3890606 22.39773623 28.78365852 23.79396249 29.1875 25.1875 C29.455625 26.115625 29.72375 27.04375 30 28 C27.68846947 30.31153053 22.22707644 29.28032078 19.125 29.3125 C18.20074219 29.34150391 17.27648437 29.37050781 16.32421875 29.40039062 C15.43605469 29.40876953 14.54789063 29.41714844 13.6328125 29.42578125 C12.81699707 29.44036377 12.00118164 29.45494629 11.16064453 29.4699707 C9 29 9 29 7.26757812 27.11474609 C3.80944246 21.34541422 2.81308483 14.65529705 2.25 8.05078125 C1.90430909 5.21503551 1.02197219 2.65712769 0 0 Z " fill="#27879A" transform="translate(107,115)"/>
<path d="M0 0 C0.99 1.485 0.99 1.485 2 3 C6.30808332 8.47243017 10.2714598 12.64501093 17 15 C18.66666667 15.66666667 20.33333333 16.33333333 22 17 C22 17.66 22 18.32 22 19 C22.886875 19.103125 23.77375 19.20625 24.6875 19.3125 C28.29421702 20.06106391 30.27160815 20.50547031 33 23 C33.99344052 26.04385555 34.30549945 28.81243023 34 32 C31.85065086 35.07049877 30.54925112 35.81691629 27 37 C25.43881572 37.06740865 23.8749748 37.08514456 22.3125 37.0625 C20.1778125 37.0315625 20.1778125 37.0315625 18 37 C18.66 40.96 19.32 44.92 20 49 C21.65 49.33 23.3 49.66 25 50 C24.34 50.99 23.68 51.98 23 53 C21.68 53 20.36 53 19 53 C18.32739649 51.23141309 17.66211605 49.46003984 17 47.6875 C16.62875 46.70136719 16.2575 45.71523437 15.875 44.69921875 C15 42 15 42 15 39 C14.34 38.67 13.68 38.34 13 38 C13.33 37.01 13.66 36.02 14 35 C14.89203125 34.95101562 15.7840625 34.90203125 16.703125 34.8515625 C17.87359375 34.77679688 19.0440625 34.70203125 20.25 34.625 C21.99023438 34.52058594 21.99023438 34.52058594 23.765625 34.4140625 C26.70694334 34.03751692 28.49949011 33.5225877 31 32 C31.41809201 29.16848027 31.41809201 29.16848027 31 26 C27.17982528 22.24645623 22.80965689 20.42476839 17.9375 18.4375 C9.4498346 14.94804048 9.4498346 14.94804048 6 12 C6.65271556 15.51705958 7.51393024 18.89325077 8.5625 22.3125 C8.83191406 23.19550781 9.10132812 24.07851562 9.37890625 24.98828125 C9.58386719 25.65214844 9.78882812 26.31601563 10 27 C9.01 27 8.02 27 7 27 C6.66226563 25.80761719 6.32453125 24.61523438 5.9765625 23.38671875 C5.52631533 21.82023382 5.07577942 20.25383185 4.625 18.6875 C4.40328125 17.90181641 4.1815625 17.11613281 3.953125 16.30664062 C3.73398438 15.54931641 3.51484375 14.79199219 3.2890625 14.01171875 C3.09006348 13.31522217 2.89106445 12.61872559 2.68603516 11.90112305 C1.98287804 9.7150302 1.98287804 9.7150302 0 7 C-0.07905064 4.66800612 -0.08798769 2.33167378 0 0 Z " fill="#4CADBC" transform="translate(117,85)"/>
<path d="M0 0 C0.91265625 -0.020625 1.8253125 -0.04125 2.765625 -0.0625 C8.78071559 -0.09677402 14.46765897 0.39591975 19.875 3.25 C21.875 6.25 21.875 6.25 21.30078125 9.53515625 C20.93339844 10.78167969 20.56601563 12.02820313 20.1875 13.3125 C19.83300781 14.56160156 19.47851562 15.81070313 19.11328125 17.09765625 C17.875 20.25 17.875 20.25 14.875 22.25 C12.45703125 21.5703125 12.45703125 21.5703125 9.6875 20.375 C4.73757283 18.41345971 1.15644097 17.85140068 -4.125 18.25 C-4.125 17.59 -4.125 16.93 -4.125 16.25 C-1.87567773 16.0545375 0.37450142 15.86891774 2.625 15.6875 C3.87796875 15.58308594 5.1309375 15.47867188 6.421875 15.37109375 C9.26952364 15.27123277 11.21786067 15.34415705 13.875 16.25 C13.83375 15.30125 13.7925 14.3525 13.75 13.375 C13.875 10.25 13.875 10.25 15.875 8.25 C14.885 8.25 13.895 8.25 12.875 8.25 C11.53518514 7.9437566 10.19988113 7.61548445 8.875 7.25 C9.865 6.92 10.855 6.59 11.875 6.25 C11.875 5.59 11.875 4.93 11.875 4.25 C6.85060538 3.07010302 1.80192684 2.89715501 -3.33007812 2.64453125 C-6.70075415 2.46096392 -9.89008527 2.25828511 -13.125 1.25 C-8.77182305 -0.20105898 -4.56074132 0.02512805 0 0 Z " fill="#2396AA" transform="translate(146.125,55.75)"/>
<path d="M0 0 C-1.32 1.32 -2.64 2.64 -4 4 C-4.66 3.67 -5.32 3.34 -6 3 C-6.33 3.33 -6.66 3.66 -7 4 C-8.66014616 4.36442233 -10.32706064 4.69972883 -12 5 C-12.66 7.31 -13.32 9.62 -14 12 C-15.32 12.33 -16.64 12.66 -18 13 C-18 15.31 -18 17.62 -18 20 C-17.34 20 -16.68 20 -16 20 C-15.87625 21.134375 -15.7525 22.26875 -15.625 23.4375 C-15.315625 25.2009375 -15.315625 25.2009375 -15 27 C-14.34 27.33 -13.68 27.66 -13 28 C-12.71125 28.9075 -12.4225 29.815 -12.125 30.75 C-10.93219256 34.19588817 -9.39471199 36.28599308 -7 39 C-8.65 38.67 -10.3 38.34 -12 38 C-12.495 36.515 -12.495 36.515 -13 35 C-13.99 34.67 -14.98 34.34 -16 34 C-20.81419769 30.31927164 -21.85666786 23.64438109 -23 18 C-23.13355499 11.71337564 -20.39520049 7.08323511 -16.13671875 2.6015625 C-11.40874598 -0.94225621 -5.59673136 -1.73691663 0 0 Z " fill="#39BDC4" transform="translate(139,60)"/>
<path d="M0 0 C0.87785156 -0.02578125 1.75570312 -0.0515625 2.66015625 -0.078125 C3.41167969 0.03015625 4.16320312 0.1384375 4.9375 0.25 C6.98584923 3.32252384 7.18753064 3.93085626 7.16796875 7.390625 C7.16676025 8.61386475 7.16676025 8.61386475 7.16552734 9.86181641 C7.15215332 10.73241699 7.1387793 11.60301758 7.125 12.5 C7.10880615 13.85037354 7.10880615 13.85037354 7.09228516 15.22802734 C7.06471997 17.05349122 7.030913 18.87887201 6.99072266 20.70410156 C6.95823921 22.25794256 6.93477664 23.81204869 6.92724609 25.36621094 C6.87310172 36.49715526 3.79550291 45.95019407 -0.0625 56.25 C-0.3925 56.25 -0.7225 56.25 -1.0625 56.25 C-1.25544408 51.42639811 -0.81997614 47.75353262 0.9375 43.25 C-0.0525 42.92 -1.0425 42.59 -2.0625 42.25 C-1.588125 41.899375 -1.11375 41.54875 -0.625 41.1875 C1.61623825 38.40836457 1.60867658 35.7355283 1.9375 32.25 C2.5975 32.25 3.2575 32.25 3.9375 32.25 C3.6075 22.68 3.2775 13.11 2.9375 3.25 C-6.42439181 2.30377841 -6.42439181 2.30377841 -10.6875 5.75 C-11.47125 6.575 -12.255 7.4 -13.0625 8.25 C-11.77239008 5.37206249 -10.48888194 3.28816083 -8.0625 1.25 C-5.14081111 0.2761037 -3.05220526 0.05394177 0 0 Z " fill="#2984A8" transform="translate(66.0625,55.75)"/>
<path d="M0 0 C1.32 0 2.64 0 4 0 C3.67 0.99 3.34 1.98 3 3 C2.5146199 12.59339488 3.10150067 22.28539756 3.4375 31.875 C3.49623291 33.60363281 3.49623291 33.60363281 3.55615234 35.3671875 C3.90889235 44.71697586 3.90889235 44.71697586 5 54 C5.66 54.33 6.32 54.66 7 55 C6.34 55 5.68 55 5 55 C5.28875 55.75925781 5.5775 56.51851562 5.875 57.30078125 C6.431875 58.79158203 6.431875 58.79158203 7 60.3125 C7.37125 61.29863281 7.7425 62.28476563 8.125 63.30078125 C9 66 9 66 9 69 C8.04208637 67.74448214 7.11006605 66.46921584 6.1875 65.1875 C5.66542969 64.47980469 5.14335937 63.77210937 4.60546875 63.04296875 C0.27581477 54.83664163 -0.43218423 46.33327387 -0.29296875 37.20703125 C-0.28872391 36.13498947 -0.28447906 35.06294769 -0.28010559 33.9584198 C-0.26347989 30.57617739 -0.22585846 27.19455851 -0.1875 23.8125 C-0.17243233 21.50196181 -0.1587476 19.19141416 -0.14648438 16.88085938 C-0.11362944 11.25369798 -0.06359403 5.62689356 0 0 Z " fill="#49B3B7" transform="translate(7,61)"/>
<path d="M0 0 C11.48742983 3.38973339 20.67708052 7.54669056 26.8125 18.125 C29.02639997 23.86332693 29.08987443 30.70479281 27.16796875 36.515625 C24.70310651 41.64844675 24.70310651 41.64844675 22 43 C21.8207014 39.41402795 22.07585738 36.73226806 23.0625 33.25 C24.5204714 27.72449969 24.43395081 22.1773018 22.05859375 16.9140625 C19.15219628 12.36742091 16.05713946 10.68571315 11 9 C11 8.34 11 7.68 11 7 C9.7934375 6.814375 9.7934375 6.814375 8.5625 6.625 C7.716875 6.41875 6.87125 6.2125 6 6 C5.67 5.34 5.34 4.68 5 4 C3.35636866 3.27840576 1.68949614 2.60648579 0 2 C0 1.34 0 0.68 0 0 Z " fill="#418D9A" transform="translate(142,85)"/>
<path d="M0 0 C0.66 0 1.32 0 2 0 C-1.7694974 18.847487 -1.7694974 18.847487 -5.67578125 22.6171875 C-14.00544014 27.50439636 -26.10854796 27.46938106 -35.3046875 25.17578125 C-41.64873987 22.70252025 -41.64873987 22.70252025 -43 20 C-40.45526529 20.43624024 -38.27130545 20.86512244 -35.94921875 22.01953125 C-31.63885912 23.45251174 -27.51211952 23.32884826 -23 23.3125 C-22.11054687 23.32861328 -21.22109375 23.34472656 -20.3046875 23.36132812 C-15.36638122 23.36501343 -12.03518983 23.18611863 -8 20 C-8.99 19.34 -9.98 18.68 -11 18 C-10.01 17.34 -9.02 16.68 -8 16 C-5.66608797 13.21885944 -5.66608797 13.21885944 -6.375 10.3125 C-6.58125 9.549375 -6.7875 8.78625 -7 8 C-6.34 8 -5.68 8 -5 8 C-5 8.66 -5 9.32 -5 10 C-4.34 10 -3.68 10 -3 10 C-2.814375 8.63875 -2.814375 8.63875 -2.625 7.25 C-2.07890323 4.41029677 -1.42736197 2.47409409 0 0 Z " fill="#1F97AA" transform="translate(63,112)"/>
<path d="M0 0 C1.32 0 2.64 0 4 0 C4 0.66 4 1.32 4 2 C3.01 2.495 3.01 2.495 2 3 C1.97517282 8.28360659 1.95707993 13.56717878 1.94506836 18.85083008 C1.94005775 20.6460835 1.93324745 22.44133287 1.92456055 24.23657227 C1.9123511 26.82569378 1.90673884 29.41476107 1.90234375 32.00390625 C1.89718246 32.79898087 1.89202118 33.59405548 1.88670349 34.41322327 C1.8862438 39.04026145 2.2757541 43.41716668 3 48 C3 48.99 3 49.98 3 51 C1.02 51.495 1.02 51.495 -1 52 C-1.02526739 44.75513449 -1.0428318 37.51028026 -1.05493164 30.26538086 C-1.05997356 27.79857967 -1.06680691 25.33178148 -1.07543945 22.86499023 C-1.08751125 19.32795471 -1.09322956 15.79095855 -1.09765625 12.25390625 C-1.10281754 11.14350479 -1.10797882 10.03310333 -1.11329651 8.88905334 C-1.11337204 7.86807053 -1.11344757 6.84708771 -1.11352539 5.79516602 C-1.115746 4.89137711 -1.11796661 3.9875882 -1.12025452 3.05641174 C-1 1 -1 1 0 0 Z " fill="#44C0C7" transform="translate(175,83)"/>
<path d="M0 0 C4.75 0.75 4.75 0.75 7 3 C7.33333333 5.33333333 7.66666667 7.66666667 8 10 C8.66 10.66 9.32 11.32 10 12 C10.32752234 14.71454956 10.1308425 17.25230759 10 20 C9 21 9 21 6.05859375 21.09765625 C4.86363281 21.08605469 3.66867188 21.07445313 2.4375 21.0625 C0.64119141 21.04896484 0.64119141 21.04896484 -1.19140625 21.03515625 C-2.11824219 21.02355469 -3.04507813 21.01195313 -4 21 C-3.86722656 20.21496094 -3.73445313 19.42992188 -3.59765625 18.62109375 C-2.43578939 11.7605341 -2.43578939 11.7605341 -1.4375 4.875 C-1 2 -1 2 0 0 Z M2 5 C1.32739649 6.76858691 0.66211605 8.53996016 0 10.3125 C-0.37125 11.29863281 -0.7425 12.28476563 -1.125 13.30078125 C-2.15418502 16.00271656 -2.15418502 16.00271656 -2 19 C0.97 19 3.94 19 7 19 C5.51868325 11.84207314 5.51868325 11.84207314 3 5 C2.67 5 2.34 5 2 5 Z " fill="#40A6B0" transform="translate(94,80)"/>
<path d="M0 0 C2.97 0 5.94 0 9 0 C10.16566811 2.33133621 10.15082079 3.75619841 10.19287109 6.35449219 C10.20893402 7.25592957 10.22499695 8.15736694 10.24154663 9.08612061 C10.28602617 13.2156093 10.32707206 17.34493703 10.35009766 21.47460938 C10.3666456 23.65115052 10.39392011 25.82763759 10.43212891 28.00390625 C10.48696716 31.14351572 10.50878384 34.28185073 10.5234375 37.421875 C10.54610687 38.39082703 10.56877625 39.35977905 10.59213257 40.35809326 C10.57778374 44.95995943 10.47260746 48.03014897 7.46728516 51.66113281 C6.245979 52.81887207 6.245979 52.81887207 5 54 C4.67 53.34 4.34 52.68 4 52 C4.48608231 51.43835144 4.97216461 50.87670288 5.47297668 50.29803467 C7.22025116 47.66854153 7.39043725 46.35146892 7.43237305 43.23144531 C7.45216721 42.29077209 7.47196136 41.35009888 7.49235535 40.38092041 C7.50194023 38.86978668 7.50194023 38.86978668 7.51171875 37.328125 C7.52966995 36.29057068 7.54762115 35.25301636 7.56611633 34.184021 C7.62026377 30.8727219 7.65412985 27.56156733 7.6875 24.25 C7.72066909 22.00388612 7.75515836 19.75779132 7.79101562 17.51171875 C7.87599271 12.00794209 7.94432387 6.50414683 8 1 C5.36 1 2.72 1 0 1 C0 0.67 0 0.34 0 0 Z " fill="#1E6A81" transform="translate(183,82)"/>
<path d="M0 0 C1.22332031 -0.02835938 2.44664063 -0.05671875 3.70703125 -0.0859375 C8.0165941 0.48480146 9.3507689 1.06386677 12.1875 4.375 C13.78388012 7.99316202 14.89964102 11.70582622 16 15.5 C16.31130859 16.51449219 16.62261719 17.52898437 16.94335938 18.57421875 C19.1875 25.9823489 19.1875 25.9823489 19.1875 28.375 C16.75 27.5625 16.75 27.5625 14.1875 26.375 C12.1875 20.375 12.1875 20.375 11.75 17.8125 C11.37631212 15.2104795 11.37631212 15.2104795 9.1875 13.375 C8.80734012 10.7786808 8.68154686 8.2087665 8.53125 5.58984375 C8.36109375 4.49349609 8.36109375 4.49349609 8.1875 3.375 C5.12216836 1.84233418 1.91995728 2.27223529 -1.4375 2.3125 C-2.49710937 2.31926758 -2.49710937 2.31926758 -3.578125 2.32617188 C-5.32295275 2.33796125 -7.067737 2.35589676 -8.8125 2.375 C-5.97255391 -0.46494609 -3.95852431 0.04145052 0 0 Z " fill="#3E9CA7" transform="translate(97.8125,55.625)"/>
<path d="M0 0 C0.66 0.33 1.32 0.66 2 1 C0.92587271 7.10556566 -0.57450212 12.75470637 -4 18 C-7.30994713 19.65497356 -10.99123 19.10084335 -14.625 19.0625 C-15.42679688 19.05798828 -16.22859375 19.05347656 -17.0546875 19.04882812 C-19.03649006 19.03703168 -21.01825433 19.01909605 -23 19 C-24.15957207 15.52128379 -23.77456651 14.65780355 -22.5625 11.3125 C-22.27503906 10.50425781 -21.98757812 9.69601563 -21.69140625 8.86328125 C-21.46324219 8.24839844 -21.23507813 7.63351563 -21 7 C-20.67 7 -20.34 7 -20 7 C-19.67 9.64 -19.34 12.28 -19 15 C-14.71 15 -10.42 15 -6 15 C-5.67 14.34 -5.34 13.68 -5 13 C-4.34 13 -3.68 13 -3 13 C-2.87625 11.96875 -2.7525 10.9375 -2.625 9.875 C-2.06110186 6.37883154 -1.21317941 3.31602373 0 0 Z " fill="#45B2B8" transform="translate(84,118)"/>
<path d="M0 0 C0.99 0.33 1.98 0.66 3 1 C2.02514648 1.62237549 1.05029297 2.24475098 0.04589844 2.88598633 C-1.96367672 4.57309769 -2.87903903 5.54701443 -3.56140137 8.10238647 C-3.75694925 10.69153729 -3.7782928 13.22798913 -3.734375 15.82421875 C-3.74333801 16.7668306 -3.75230103 17.70944244 -3.76153564 18.68061829 C-3.78561002 21.68355458 -3.7697198 24.68455912 -3.75 27.6875 C-3.7514402 30.70064335 -3.76125437 33.71344009 -3.78131104 36.72651672 C-3.79154787 38.59952669 -3.78973216 40.47264808 -3.77484131 42.34562683 C-3.77534485 43.19022964 -3.77584839 44.03483246 -3.77636719 44.9050293 C-3.77159363 45.64939743 -3.76682007 46.39376556 -3.76190186 47.16069031 C-4 49 -4 49 -6 51 C-6.15245862 44.70148833 -6.25734284 38.40345435 -6.32958984 32.10351562 C-6.35971473 29.96173318 -6.40062378 27.82007363 -6.45263672 25.67871094 C-6.52564003 22.59539448 -6.55949951 19.51371217 -6.5859375 16.4296875 C-6.61690521 15.47633514 -6.64787292 14.52298279 -6.67977905 13.54074097 C-6.68221642 8.69768506 -6.46781041 5.87575605 -2.96337891 2.34814453 C-1.98546387 1.57325684 -1.00754883 0.79836914 0 0 Z " fill="#3399AF" transform="translate(59,58)"/>
<path d="M0 0 C0.91265625 -0.020625 1.8253125 -0.04125 2.765625 -0.0625 C8.78071559 -0.09677402 14.46765897 0.39591975 19.875 3.25 C21.875 6.25 21.875 6.25 21.4140625 8.73046875 C21.11242187 9.62378906 20.81078125 10.51710938 20.5 11.4375 C20.20351562 12.33855469 19.90703125 13.23960938 19.6015625 14.16796875 C19.36179688 14.85503906 19.12203125 15.54210937 18.875 16.25 C18.545 16.25 18.215 16.25 17.875 16.25 C17.38 11.3 17.38 11.3 16.875 6.25 C14.6784375 5.7859375 14.6784375 5.7859375 12.4375 5.3125 C8 4.375 8 4.375 6.875 3.25 C4.26666878 3.03779678 1.67524168 2.87343661 -0.9375 2.75 C-9.69752832 2.32951864 -9.69752832 2.32951864 -13.125 1.25 C-8.77182305 -0.20105898 -4.56074132 0.02512805 0 0 Z " fill="#36939B" transform="translate(146.125,55.75)"/>
<path d="M0 0 C0.66 0 1.32 0 2 0 C2 0.66 2 1.32 2 2 C2.99 2.33 3.98 2.66 5 3 C4.938125 4.2375 4.87625 5.475 4.8125 6.75 C4.80581397 10.56103608 5.47702567 12.08887577 8 15 C8.33 16.03125 8.66 17.0625 9 18.125 C9.77529656 21.28615876 9.77529656 21.28615876 13 23 C13 23.66 13 24.32 13 25 C14.32 25.66 15.64 26.32 17 27 C9.36009353 27.29384256 9.36009353 27.29384256 6 25 C3.42923182 19.74928044 2.7415411 13.81614877 2.25 8.05078125 C1.90430909 5.21503551 1.02197219 2.65712769 0 0 Z " fill="#2E9DAD" transform="translate(107,115)"/>
<path d="M0 0 C0.78375 0.04125 1.5675 0.0825 2.375 0.125 C2.375 0.785 2.375 1.445 2.375 2.125 C0.395 3.115 0.395 3.115 -1.625 4.125 C-1.95925735 6.49874861 -1.95925735 6.49874861 -1.625 9.125 C0.3350281 10.76176257 0.3350281 10.76176257 2.375 12.125 C2.375 13.115 2.375 14.105 2.375 15.125 C-2.08 15.62 -2.08 15.62 -6.625 16.125 C-8.40833166 11.09924715 -6.70931723 6.79864524 -4.625 2.125 C-2.625 0.125 -2.625 0.125 0 0 Z " fill="#3AAAB7" transform="translate(139.625,71.875)"/>
<path d="M0 0 C-3.17791937 4.76687905 -6.65275383 7.18737418 -12 9 C-15.33107184 9.56941399 -18.62505609 9.86168263 -22 10 C-19.52414762 7.34730103 -17.40973899 5.31989897 -14 4 C-13.01 4 -12.02 4 -11 4 C-11 3.34 -11 2.68 -11 2 C-11.66 1.67 -12.32 1.34 -13 1 C-8.61414671 0.29826347 -4.44209357 -0.10834375 0 0 Z " fill="#249CAD" transform="translate(164,128)"/>
<path d="M0 0 C2.6855594 2.6855594 3.06049974 5.37621328 4 9 C4.66 9 5.32 9 6 9 C6.66 11.64 7.32 14.28 8 17 C7.071875 16.979375 6.14375 16.95875 5.1875 16.9375 C1.97713989 16.84230396 1.97713989 16.84230396 -1 18 C-0.814375 17.21625 -0.62875 16.4325 -0.4375 15.625 C0.25962266 13.02910225 0.25962266 13.02910225 -1 11 C-0.67558396 9.33157466 -0.34060811 7.66519519 0 6 C0.03772913 4.0003559 0.04649906 1.99945939 0 0 Z " fill="#2794A7" transform="translate(121,103)"/>
<path d="M0 0 C2.54662052 0.43656352 4.72860765 0.86456229 7.05078125 2.0234375 C11.36283989 3.45127149 15.48882003 3.28922765 20 3.25 C20.88945313 3.25773438 21.77890625 3.26546875 22.6953125 3.2734375 C27.22607409 3.25991284 30.89263356 3.15636738 35 1 C35.495 1.99 35.495 1.99 36 3 C27.53726854 7.32139479 16.86100223 7.48265258 7.7109375 5.16796875 C1.36284567 2.72569135 1.36284567 2.72569135 0 0 Z " fill="#4EA5AD" transform="translate(20,132)"/>
<path d="M0 0 C-1.32 1.32 -2.64 2.64 -4 4 C-4.66 3.67 -5.32 3.34 -6 3 C-6.33 3.33 -6.66 3.66 -7 4 C-8.66014616 4.36442233 -10.32706064 4.69972883 -12 5 C-12.66 7.31 -13.32 9.62 -14 12 C-14.99 12 -15.98 12 -17 12 C-17 11.34 -17 10.68 -17 10 C-17.66 9.67 -18.32 9.34 -19 9 C-18.34 9 -17.68 9 -17 9 C-16.773125 8.2575 -16.54625 7.515 -16.3125 6.75 C-14.70040045 3.37226761 -13.14813982 2.00336171 -10 0 C-6.32731049 -0.97438701 -3.60943405 -1.24941948 0 0 Z " fill="#2DB9BE" transform="translate(139,60)"/>
<path d="M0 0 C0.66 0.33 1.32 0.66 2 1 C2 1.99 2 2.98 2 4 C2.66 4 3.32 4 4 4 C4.50435694 5.9363704 5.00333874 7.87414146 5.5 9.8125 C5.7784375 10.89144531 6.056875 11.97039062 6.34375 13.08203125 C7 16 7 16 7 19 C2.71 19 -1.58 19 -6 19 C-6 18.34 -6 17.68 -6 17 C-2.37 17 1.26 17 5 17 C3.68 13.04 2.36 9.08 1 5 C0.34 5 -0.32 5 -1 5 C-0.67 3.35 -0.34 1.7 0 0 Z " fill="#56ABB5" transform="translate(96,82)"/>
<path d="M0 0 C6.93 0 13.86 0 21 0 C22.49035891 5.21625619 23.24741966 7.92789703 23 13 C20.81024227 9.71536341 20.00193437 6.79303725 19 3 C16.04160645 2.97310551 13.08345573 2.95321259 10.125 2.9375 C9.28324219 2.92912109 8.44148438 2.92074219 7.57421875 2.91210938 C6.76855469 2.90888672 5.96289062 2.90566406 5.1328125 2.90234375 C4.38918457 2.89710693 3.64555664 2.89187012 2.87939453 2.88647461 C0.90867432 2.88213364 0.90867432 2.88213364 -1 4 C-0.67 2.68 -0.34 1.36 0 0 Z " fill="#5EAEB7" transform="translate(87,114)"/>
<path d="M0 0 C0.99 1.485 0.99 1.485 2 3 C2.79083984 3.71349609 2.79083984 3.71349609 3.59765625 4.44140625 C5.70213492 6.78036722 5.38789899 9.28406062 5.6171875 12.3046875 C6.34059466 17.39806446 8.24727599 22.18204703 10 27 C9.01 27 8.02 27 7 27 C6.66226563 25.80761719 6.32453125 24.61523438 5.9765625 23.38671875 C5.52631533 21.82023382 5.07577942 20.25383185 4.625 18.6875 C4.40328125 17.90181641 4.1815625 17.11613281 3.953125 16.30664062 C3.73398438 15.54931641 3.51484375 14.79199219 3.2890625 14.01171875 C3.09006348 13.31522217 2.89106445 12.61872559 2.68603516 11.90112305 C1.98287804 9.7150302 1.98287804 9.7150302 0 7 C-0.07905064 4.66800612 -0.08798769 2.33167378 0 0 Z " fill="#4CA5B0" transform="translate(117,85)"/>
<path d="M0 0 C3.875 0.875 3.875 0.875 5 2 C5.48758273 12.33962208 4.75857887 22.69145494 4 33 C3.67 33 3.34 33 3 33 C1.95481555 23.31337984 1.89628089 13.72654773 2 4 C1.34 3.67 0.68 3.34 0 3 C0 2.01 0 1.02 0 0 Z " fill="#2B849E" transform="translate(23,55)"/>
<path d="M0 0 C0.66 0 1.32 0 2 0 C2 0.99 2 1.98 2 3 C3.98 3 5.96 3 8 3 C5.375 6.875 5.375 6.875 2 8 C0.44578271 8.08106686 -1.11167027 8.10756898 -2.66796875 8.09765625 C-3.56064453 8.09443359 -4.45332031 8.09121094 -5.37304688 8.08789062 C-6.76620117 8.07532227 -6.76620117 8.07532227 -8.1875 8.0625 C-9.59805664 8.05573242 -9.59805664 8.05573242 -11.03710938 8.04882812 C-13.35813712 8.03704626 -15.67903644 8.02059558 -18 8 C-17.67 7.01 -17.34 6.02 -17 5 C-16.67 5.33 -16.34 5.66 -16 6 C-13.30345146 6.07319621 -10.63308542 6.09242537 -7.9375 6.0625 C-6.79958008 6.05573242 -6.79958008 6.05573242 -5.63867188 6.04882812 C-3.75908129 6.0370068 -1.87953101 6.01907078 0 6 C0 4.02 0 2.04 0 0 Z " fill="#25A3B1" transform="translate(48,128)"/>
<path d="M0 0 C1.56427734 -0.03867187 1.56427734 -0.03867187 3.16015625 -0.078125 C5.9375 0.25 5.9375 0.25 7.80859375 1.765625 C8.36740234 2.50039063 8.36740234 2.50039063 8.9375 3.25 C7.99648437 3.21519531 7.05546875 3.18039063 6.0859375 3.14453125 C4.84070313 3.11746094 3.59546875 3.09039062 2.3125 3.0625 C1.08273438 3.02769531 -0.14703125 2.99289063 -1.4140625 2.95703125 C-5.36109685 3.27397726 -7.72460841 4.15751509 -11.0625 6.25 C-11.86778889 8.30000871 -11.86778889 8.30000871 -12.0625 10.25 C-13.0525 10.745 -13.0525 10.745 -14.0625 11.25 C-13.58972131 7.08954751 -13.07617009 4.26367009 -10.0625 1.25 C-6.74182555 0.11556144 -3.48893844 0.05188013 0 0 Z " fill="#3EACB6" transform="translate(98.0625,56.75)"/>
<path d="M0 0 C2.57662281 2.57662281 2.34115688 3.92083461 2.5625 7.5 C2.73519346 11.39598635 2.73519346 11.39598635 4 15 C3.29296875 16.91015625 3.29296875 16.91015625 2.1875 19.0625 C1.65189453 20.13177734 1.65189453 20.13177734 1.10546875 21.22265625 C0 23 0 23 -2 24 C-2.21233652 19.75326954 -1.56879422 16.31688604 -0.4453125 12.234375 C0.36121441 8.18759088 0.15147583 4.10667793 0 0 Z " fill="#2089A8" transform="translate(166,104)"/>
<path d="M0 0 C0.99 0 1.98 0 3 0 C3.12658228 5.56962025 3.12658228 5.56962025 2.375 8.125 C1.86965523 10.65172384 2.69436803 11.84954734 4 14 C3.01 14 2.02 14 1 14 C1.33 14.99 1.66 15.98 2 17 C0.68 16.67 -0.64 16.34 -2 16 C-1.91621094 15.38511719 -1.83242187 14.77023438 -1.74609375 14.13671875 C-1.64425781 13.32847656 -1.54242188 12.52023438 -1.4375 11.6875 C-1.28087891 10.48673828 -1.28087891 10.48673828 -1.12109375 9.26171875 C-0.85244822 6.83182884 -0.85244822 6.83182884 -2 4 C-1.0625 1.8125 -1.0625 1.8125 0 0 Z " fill="#2FB8C1" transform="translate(77,84)"/>
<path d="M0 0 C0.87785156 -0.02578125 1.75570312 -0.0515625 2.66015625 -0.078125 C3.41167969 0.03015625 4.16320312 0.1384375 4.9375 0.25 C7.14664 3.56371 7.16231553 4.5946021 7.0625 8.4375 C7.04445313 9.33855469 7.02640625 10.23960938 7.0078125 11.16796875 C6.98460938 11.85503906 6.96140625 12.54210937 6.9375 13.25 C6.6075 13.25 6.2775 13.25 5.9375 13.25 C5.9375 10.28 5.9375 7.31 5.9375 4.25 C-1.6467702 2.54021571 -1.6467702 2.54021571 -8.76953125 4.3671875 C-10.25492562 5.59863857 -11.66529502 6.91932859 -13.0625 8.25 C-11.77239008 5.37206249 -10.48888194 3.28816083 -8.0625 1.25 C-5.14081111 0.2761037 -3.05220526 0.05394177 0 0 Z " fill="#418290" transform="translate(66.0625,55.75)"/>
<path d="M0 0 C1.32 0 2.64 0 4 0 C3.67 0.99 3.34 1.98 3 3 C2.88677175 4.4264314 2.82404524 5.8572249 2.79467773 7.2878418 C2.77473251 8.14850754 2.75478729 9.00917328 2.73423767 9.8959198 C2.71752518 10.82100845 2.70081268 11.74609711 2.68359375 12.69921875 C2.66281265 13.64940384 2.64203156 14.59958893 2.62062073 15.5785675 C2.55521948 18.61480456 2.49628396 21.65112831 2.4375 24.6875 C2.39430583 26.74545169 2.35069124 28.80339459 2.30664062 30.86132812 C2.19954769 35.90746316 2.09825354 40.95368543 2 46 C1.67 46 1.34 46 1 46 C0.67 30.82 0.34 15.64 0 0 Z " fill="#4ABCC1" transform="translate(7,61)"/>
<path d="M0 0 C0.66 0.33 1.32 0.66 2 1 C2.52573345 2.97150045 3.04377512 4.94611254 3.48828125 6.9375 C3.97981298 9.15939695 3.97981298 9.15939695 5.1875 11.75 C6.11228113 14.31093237 5.93179527 15.48415277 5 18 C4.5875 17.071875 4.175 16.14375 3.75 15.1875 C2.28707909 11.95523394 2.28707909 11.95523394 -0.1875 10.5 C-0.785625 10.005 -1.38375 9.51 -2 9 C-2.1875 5.9375 -2.1875 5.9375 -2 3 C-2.33 2.34 -2.66 1.68 -3 1 C-2.01 0.67 -1.02 0.34 0 0 Z " fill="#219BAD" transform="translate(115,85)"/>
<path d="M0 0 C0.33 2.31 0.66 4.62 1 7 C0.34 7 -0.32 7 -1 7 C-1.99 9.64 -2.98 12.28 -4 15 C-6.02352607 12.14325731 -6.04818137 10.21405943 -5.5625 6.875 C-4.65461008 3.21489276 -4.65461008 3.21489276 -6 1 C-4 0 -4 0 0 0 Z " fill="#2BB6BE" transform="translate(86,112)"/>
<path d="M0 0 C1.04296875 1.85546875 1.04296875 1.85546875 2 4 C1.3125 6.3125 1.3125 6.3125 0 9 C-2.5057867 14.55630965 -4.33649259 20.13643133 -6 26 C-6.66 25.67 -7.32 25.34 -8 25 C-5.56541729 16.58782396 -2.79856214 8.29613284 0 0 Z " fill="#52A7B4" transform="translate(75,89)"/>
<path d="M0 0 C0.66 0.33 1.32 0.66 2 1 C1.21366078 2.14949588 0.42073742 3.29448989 -0.375 4.4375 C-0.81585938 5.07558594 -1.25671875 5.71367188 -1.7109375 6.37109375 C-3 8 -3 8 -5 9 C-5.50585698 11.05556219 -5.50585698 11.05556219 -5.6875 13.4375 C-5.77386719 14.24058594 -5.86023438 15.04367188 -5.94921875 15.87109375 C-6.16761148 18.05512314 -6.16761148 18.05512314 -5 20 C-4.960008 21.99960012 -4.95653201 24.00047242 -5 26 C-8.30757416 22.69242584 -8.78422361 18.57707484 -9 14 C-7.59660961 8.0890312 -4.53788945 3.90762703 0 0 Z " fill="#54AEB4" transform="translate(125,61)"/>
<path d="M0 0 C0.99 0.33 1.98 0.66 3 1 C3.9560073 5.78003652 4.32351874 10.1472189 4 15 C3.01 15.66 2.02 16.32 1 17 C-0.13480527 13.39006828 -0.10015767 10.0157673 -0.0625 6.25 C-0.05347656 5.07953125 -0.04445312 3.9090625 -0.03515625 2.703125 C-0.02355469 1.81109375 -0.01195312 0.9190625 0 0 Z " fill="#42BEC4" transform="translate(174,64)"/>
<path d="M0 0 C10.09117362 3.09990301 10.09117362 3.09990301 14 6 C14 6.66 14 7.32 14 8 C14.66 8 15.32 8 16 8 C16 8.66 16 9.32 16 10 C16.66 10.33 17.32 10.66 18 11 C15.61435923 10.42415568 13.33317216 9.77772405 11 9 C11 8.34 11 7.68 11 7 C9.7934375 6.814375 9.7934375 6.814375 8.5625 6.625 C7.716875 6.41875 6.87125 6.2125 6 6 C5.67 5.34 5.34 4.68 5 4 C3.35636866 3.27840576 1.68949614 2.60648579 0 2 C0 1.34 0 0.68 0 0 Z " fill="#2D9DA9" transform="translate(142,85)"/>
<path d="M0 0 C1.46109063 0.25554054 2.91888096 0.53000372 4.375 0.8125 C5.59316406 1.03873047 5.59316406 1.03873047 6.8359375 1.26953125 C9 2 9 2 11 5 C10.5390625 7.48046875 10.5390625 7.48046875 9.625 10.1875 C9.32851562 11.08855469 9.03203125 11.98960938 8.7265625 12.91796875 C8.48679688 13.60503906 8.24703125 14.29210937 8 15 C7.67 15 7.34 15 7 15 C6.95101562 14.28972656 6.90203125 13.57945313 6.8515625 12.84765625 C6.77679688 11.92855469 6.70203125 11.00945312 6.625 10.0625 C6.52058594 8.68771484 6.52058594 8.68771484 6.4140625 7.28515625 C6.27742187 6.53105469 6.14078125 5.77695312 6 5 C5.34 4.67 4.68 4.34 4 4 C4 3.34 4 2.68 4 2 C2.68 1.67 1.36 1.34 0 1 C0 0.67 0 0.34 0 0 Z " fill="#45919B" transform="translate(157,57)"/>
<path d="M0 0 C0.66 0 1.32 0 2 0 C0.95026168 5.24869162 -0.31846704 10.37692302 -1.875 15.5 C-2.18179688 16.5209375 -2.48859375 17.541875 -2.8046875 18.59375 C-4 21 -4 21 -6.1328125 21.84375 C-7.05707031 21.92109375 -7.05707031 21.92109375 -8 22 C-7.505 20.515 -7.505 20.515 -7 19 C-6.34 19 -5.68 19 -5 19 C-4.87753906 18.32582031 -4.75507812 17.65164062 -4.62890625 16.95703125 C-3.88946431 13.48027628 -2.92658815 10.10144942 -1.9375 6.6875 C-1.57527344 5.43324219 -1.21304688 4.17898437 -0.83984375 2.88671875 C-0.42412109 1.45779297 -0.42412109 1.45779297 0 0 Z " fill="#3B8A9A" transform="translate(63,112)"/>
<path d="M0 0 C0.66 0 1.32 0 2 0 C4.68126257 2.92312903 5.7374141 5.76530286 6.75 9.5625 C7.01296875 10.51253906 7.2759375 11.46257812 7.546875 12.44140625 C8 15 8 15 7 18 C6.34 17.67 5.68 17.34 5 17 C4.59802999 14.67750658 4.27313343 12.34114367 4 10 C3.68033861 8.33065717 3.35268934 6.6626783 3 5 C1.68 5 0.36 5 -1 5 C-0.67 3.35 -0.34 1.7 0 0 Z " fill="#3890A5" transform="translate(127,121)"/>
<path d="M0 0 C-0.33 1.65 -0.66 3.3 -1 5 C-7.75 7.125 -7.75 7.125 -10 6 C-9.67 4.68 -9.34 3.36 -9 2 C-2.25 0 -2.25 0 0 0 Z " fill="#23A9BD" transform="translate(48,121)"/>
<path d="M0 0 C0.99 0.33 1.98 0.66 3 1 C2.34 1 1.68 1 1 1 C1.66 2.65 2.32 4.3 3 6 C1.02 6 -0.96 6 -3 6 C-2.67 10.95 -2.34 15.9 -2 21 C-2.66 21 -3.32 21 -4 21 C-4.10845031 18.43635517 -4.18749744 15.87733721 -4.25 13.3125 C-4.28351563 12.59126953 -4.31703125 11.87003906 -4.3515625 11.12695312 C-4.42478439 7.11805482 -4.28590487 5.42830322 -1.984375 1.98046875 C-1.00210938 1.00013672 -1.00210938 1.00013672 0 0 Z " fill="#54ABB2" transform="translate(177,58)"/>
<path d="M0 0 C0.33 0 0.66 0 1 0 C1.07622858 3.96388638 0.9681648 7.1273408 0 11 C4.95 11 9.9 11 15 11 C15 11.33 15 11.66 15 12 C9.39 12 3.78 12 -2 12 C-3.15957207 8.52128379 -2.77456651 7.65780355 -1.5625 4.3125 C-1.13130859 3.10013672 -1.13130859 3.10013672 -0.69140625 1.86328125 C-0.46324219 1.24839844 -0.23507813 0.63351563 0 0 Z " fill="#58ADB7" transform="translate(63,125)"/>
<path d="M0 0 C0.99 0.33 1.98 0.66 3 1 C2.690625 1.886875 2.38125 2.77375 2.0625 3.6875 C0.95455086 6.85987233 0.95455086 6.85987233 0.5625 9.6875 C-0.08665348 12.3562421 -1.02615758 13.17353781 -3 15 C-2.22095672 4.44191344 -2.22095672 4.44191344 0 0 Z " fill="#27B3C0" transform="translate(85,67)"/>
<path d="M0 0 C0.99 0.33 1.98 0.66 3 1 C-2.75883868 6.72180435 -8.36780301 9.75620016 -16.5625 10.1875 C-17.366875 10.125625 -18.17125 10.06375 -19 10 C-19 9.67 -19 9.34 -19 9 C-18.14535156 8.80664062 -17.29070312 8.61328125 -16.41015625 8.4140625 C-14.75306641 8.02347656 -14.75306641 8.02347656 -13.0625 7.625 C-11.96035156 7.36976563 -10.85820312 7.11453125 -9.72265625 6.8515625 C-8.82417969 6.57054687 -7.92570313 6.28953125 -7 6 C-6.67 5.34 -6.34 4.68 -6 4 C-4.33333333 3.33333333 -2.66666667 2.66666667 -1 2 C-0.67 1.34 -0.34 0.68 0 0 Z " fill="#468F9C" transform="translate(161,128)"/>
<path d="M0 0 C2.04119788 1.61594832 4.04072937 3.2856382 6 5 C6 5.66 6 6.32 6 7 C7.32 7.33 8.64 7.66 10 8 C9.67 8.99 9.34 9.98 9 11 C8.01 11.33 7.02 11.66 6 12 C2.28930302 8.00386479 0.40208382 5.62917348 0 0 Z " fill="#38A5AE" transform="translate(29,114)"/>
<path d="M0 0 C0.44730469 0.40992187 0.89460938 0.81984375 1.35546875 1.2421875 C4.75975998 4.27628928 7.58672085 6.6063329 12 8 C14.5 9 14.5 9 17 10 C17 10.33 17 10.66 17 11 C11.35476294 11.89135322 7.78721493 9.5271333 3.07421875 6.80078125 C0.56255697 4.62022366 0.29367766 3.25261861 0 0 Z " fill="#56B3B7" transform="translate(122,92)"/>
<path d="M0 0 C0.66 0 1.32 0 2 0 C1.55018927 2.60590351 1.09055778 5.20940531 0.625 7.8125 C0.49867187 8.55048828 0.37234375 9.28847656 0.2421875 10.04882812 C-0.40163482 13.60594646 -0.96996056 15.95494084 -3 19 C-3.19294408 14.17639811 -2.75747614 10.50353262 -1 6 C-1.99 5.67 -2.98 5.34 -4 5 C-2.71937515 3.2925002 -1.38232443 1.62626404 0 0 Z " fill="#268B9E" transform="translate(68,93)"/>
<path d="M0 0 C1.32 0 2.64 0 4 0 C4 2.64 4 5.28 4 8 C3.34 8 2.68 8 2 8 C1.67 8.99 1.34 9.98 1 11 C0 10 0 10 -0.09765625 7.71484375 C-0.08605469 6.79832031 -0.07445313 5.88179688 -0.0625 4.9375 C-0.05347656 4.01839844 -0.04445313 3.09929687 -0.03515625 2.15234375 C-0.02355469 1.44207031 -0.01195313 0.73179688 0 0 Z " fill="#1393A4" transform="translate(66,80)"/>
<path d="M0 0 C0.33 0 0.66 0 1 0 C1.33 3.3 1.66 6.6 2 10 C-2.95 10 -7.9 10 -13 10 C-13 9.67 -13 9.34 -13 9 C-7.555 8.505 -7.555 8.505 -2 8 C-2.66 7.67 -3.32 7.34 -4 7 C-4 6.34 -4 5.68 -4 5 C-3.01 4.67 -2.02 4.34 -1 4 C-0.26676204 1.98491642 -0.26676204 1.98491642 0 0 Z " fill="#2D90A1" transform="translate(190,70)"/>
<path d="M0 0 C7.62951555 -0.34855655 13.92444501 -0.0017506 21 3 C20.67 3.99 20.34 4.98 20 6 C18.83984375 5.566875 18.83984375 5.566875 17.65625 5.125 C11.50543402 2.93262995 6.53040965 1.4976608 0 2 C0 1.34 0 0.68 0 0 Z " fill="#4F93A0" transform="translate(142,72)"/>
<path d="M0 0 C1.98 0.66 3.96 1.32 6 2 C6 2.99 6 3.98 6 5 C7.32 5.66 8.64 6.32 10 7 C2.57142857 7.28571429 2.57142857 7.28571429 -1 5 C-0.67 3.35 -0.34 1.7 0 0 Z " fill="#249BAC" transform="translate(114,135)"/>
<path d="M0 0 C0.33 0 0.66 0 1 0 C1.32098157 8.35740901 1.21819111 15.22270481 -2 23 C-2.33 23 -2.66 23 -3 23 C-2.125 15.25 -2.125 15.25 -1 13 C-1.66 12.67 -2.32 12.34 -3 12 C-2.01 11.67 -1.02 11.34 0 11 C0 7.37 0 3.74 0 0 Z " fill="#3B839B" transform="translate(71,80)"/>
<path d="M0 0 C1.485 0.99 1.485 0.99 3 2 C3.37400786 4.32716 3.70764733 6.66117862 4 9 C4.66 9.66 5.32 10.32 6 11 C5.625 14.125 5.625 14.125 5 17 C4.67 17 4.34 17 4 17 C2.70756464 12.8803623 1.73747375 9.33168317 2 5 C1.34 5 0.68 5 0 5 C0 3.35 0 1.7 0 0 Z " fill="#2FA5B1" transform="translate(98,81)"/>
<path d="M0 0 C0.66 0.33 1.32 0.66 2 1 C1.67 3.64 1.34 6.28 1 9 C-1.475 8.01 -1.475 8.01 -4 7 C-3.67 6.34 -3.34 5.68 -3 5 C-2.505 3.9790625 -2.505 3.9790625 -2 2.9375 C-1 1 -1 1 0 0 Z " fill="#22B9C2" transform="translate(131,78)"/>
<path d="M0 0 C1.60332791 -0.08121924 3.20784026 -0.13929134 4.8125 -0.1875 C6.15248047 -0.23970703 6.15248047 -0.23970703 7.51953125 -0.29296875 C10.41647515 0.04918998 11.22555028 0.75393573 13 3 C11.39592672 3.02708567 9.7917215 3.04643483 8.1875 3.0625 C6.84751953 3.07990234 6.84751953 3.07990234 5.48046875 3.09765625 C3 3 3 3 0 2 C0 1.34 0 0.68 0 0 Z " fill="#34A8B3" transform="translate(94,57)"/>
<path d="M0 0 C0.99 0.33 1.98 0.66 3 1 C2.67 3.31 2.34 5.62 2 8 C0.68 8 -0.64 8 -2 8 C-2 6.02 -2 4.04 -2 2 C-1.34 2 -0.68 2 0 2 C0 1.34 0 0.68 0 0 Z " fill="#1994AC" transform="translate(162,120)"/>
<path d="M0 0 C1.134375 0.020625 2.26875 0.04125 3.4375 0.0625 C3.1075 1.0525 2.7775 2.0425 2.4375 3.0625 C0.7875 3.0625 -0.8625 3.0625 -2.5625 3.0625 C-2.8925 4.0525 -3.2225 5.0425 -3.5625 6.0625 C-3.8925 6.0625 -4.2225 6.0625 -4.5625 6.0625 C-4.605221 4.39638095 -4.60313832 2.72867115 -4.5625 1.0625 C-3.5625 0.0625 -3.5625 0.0625 0 0 Z " fill="#4BB6C2" transform="translate(19.5625,55.9375)"/>
<path d="M0 0 C1.65 0 3.3 0 5 0 C4.01 0.495 4.01 0.495 3 1 C3.33 3.97 3.66 6.94 4 10 C3.34 10 2.68 10 2 10 C1.87625 9.030625 1.7525 8.06125 1.625 7.0625 C1.41875 6.051875 1.2125 5.04125 1 4 C0.34 3.67 -0.32 3.34 -1 3 C-0.67 2.01 -0.34 1.02 0 0 Z " fill="#52A0AD" transform="translate(131,120)"/>
<path d="M0 0 C1.32 0 2.64 0 4 0 C3.67 0.99 3.34 1.98 3 3 C2.77202438 5.73289293 2.58331813 8.45042204 2.4375 11.1875 C2.39431641 11.93708984 2.35113281 12.68667969 2.30664062 13.45898438 C2.20077315 15.30578375 2.0999024 17.15286834 2 19 C1.67 19 1.34 19 1 19 C0.67 12.73 0.34 6.46 0 0 Z " fill="#57B8B5" transform="translate(7,61)"/>
<path d="M0 0 C0.33 0 0.66 0 1 0 C1.1875 2.875 1.1875 2.875 1 6 C-2.20380017 8.13586678 -3.01939967 8.23132175 -6.6875 8.125 C-7.89986328 8.09792969 -7.89986328 8.09792969 -9.13671875 8.0703125 C-10.05904297 8.03550781 -10.05904297 8.03550781 -11 8 C-11 7.67 -11 7.34 -11 7 C-7.97265625 6.26757812 -7.97265625 6.26757812 -4.9453125 5.53515625 C-2.9414343 5.05153008 -2.9414343 5.05153008 -1 4 C-0.34786708 1.97536745 -0.34786708 1.97536745 0 0 Z " fill="#59A0A7" transform="translate(149,113)"/>
<path d="M0 0 C2 1.75 2 1.75 4 4 C4 5.32 4 6.64 4 8 C2.35 8 0.7 8 -1 8 C-0.835 7.236875 -0.67 6.47375 -0.5 5.6875 C0.09145396 2.96403764 0.09145396 2.96403764 0 0 Z " fill="#1497AA" transform="translate(161,98)"/>
<path d="M0 0 C2 4 2 4 1.3125 6.625 C0 9 0 9 -3 11 C-2.01 7.37 -1.02 3.74 0 0 Z " fill="#44A5AC" transform="translate(75,89)"/>
<path d="M0 0 C0.33 0 0.66 0 1 0 C0.67 3.63 0.34 7.26 0 11 C-0.99 11 -1.98 11 -3 11 C-2.01 7.37 -1.02 3.74 0 0 Z " fill="#4FA9AD" transform="translate(80,73)"/>
<path d="M0 0 C0.33 0 0.66 0 1 0 C1.602537 6.02536998 1.602537 6.02536998 -0.11328125 8.80078125 C-1.34621853 10.25599455 -2.66808933 11.63479157 -4 13 C-4.33 12.34 -4.66 11.68 -5 11 C-4.54625 10.484375 -4.0925 9.96875 -3.625 9.4375 C-1.61799617 6.42699426 -0.87268191 3.49072763 0 0 Z " fill="#3D8186" transform="translate(192,123)"/>
<path d="M0 0 C9.59453303 2.89066059 9.59453303 2.89066059 13 6 C8.39146203 5.27991594 4.32762591 3.68704061 0 2 C0 1.34 0 0.68 0 0 Z " fill="#5298A3" transform="translate(142,85)"/>
<path d="M0 0 C0.66 0 1.32 0 2 0 C1.5206753 4.31392226 0.2542015 6.16569547 -3 9 C-2.44271087 5.65626525 -1.64826111 2.96687001 0 0 Z " fill="#3B8094" transform="translate(167,119)"/>
<path d="M0 0 C-0.33 1.65 -0.66 3.3 -1 5 C-2.98 5.33 -4.96 5.66 -7 6 C-6.01 5.67 -5.02 5.34 -4 5 C-4.33 3.68 -4.66 2.36 -5 1 C-2 0 -2 0 0 0 Z " fill="#1FA2AF" transform="translate(48,121)"/>
<path d="M0 0 C0.391875 0.474375 0.78375 0.94875 1.1875 1.4375 C3.40808374 3.35179633 5.13375709 3.61266988 8 4 C7.01 5.485 7.01 5.485 6 7 C4.68 7 3.36 7 2 7 C1.34 4.69 0.68 2.38 0 0 Z " fill="#479DA6" transform="translate(134,131)"/>
<path d="M0 0 C0 1.65 0 3.3 0 5 C-0.99 5 -1.98 5 -3 5 C-3.33 5.99 -3.66 6.98 -4 8 C-4.75 6.25 -4.75 6.25 -5 4 C-1.66666667 0 -1.66666667 0 0 0 Z " fill="#2FA6A7" transform="translate(15,57)"/>
<path d="M0 0 C0.66 0 1.32 0 2 0 C1.67 2.64 1.34 5.28 1 8 C0.01 8 -0.98 8 -2 8 C-1.34 5.36 -0.68 2.72 0 0 Z " fill="#4DACB3" transform="translate(66,116)"/>
<path d="M0 0 C0.598125 0.165 1.19625 0.33 1.8125 0.5 C4.11344336 1.1114124 4.11344336 1.1114124 7 1 C6.67 2.65 6.34 4.3 6 6 C5.67 5.01 5.34 4.02 5 3 C3.67696283 2.6278958 2.34262065 2.29369827 1 2 C0.67 1.34 0.34 0.68 0 0 Z " fill="#24A2AD" transform="translate(145,105)"/>
<path d="M0 0 C1.1725131 0.95117134 2.33787015 1.91117009 3.5 2.875 C4.47453125 3.67550781 4.47453125 3.67550781 5.46875 4.4921875 C5.9740625 4.98976563 6.479375 5.48734375 7 6 C7 6.66 7 7.32 7 8 C4.50638429 6.79618552 2.31856917 5.54571278 0 4 C0 2.68 0 1.36 0 0 Z " fill="#60BABE" transform="translate(122,92)"/>
<path d="M0 0 C1.27351308 2.54702616 0.80191925 3.4282945 0.0625 6.125 C-0.13214844 6.84945312 -0.32679687 7.57390625 -0.52734375 8.3203125 C-0.68332031 8.87460938 -0.83929688 9.42890625 -1 10 C-1.33 10 -1.66 10 -2 10 C-2.33 7.36 -2.66 4.72 -3 2 C-2.01 1.34 -1.02 0.68 0 0 Z " fill="#36ACB8" transform="translate(92,89)"/>
<path d="M0 0 C1.2065625 0.0309375 1.2065625 0.0309375 2.4375 0.0625 C2.4375 0.7225 2.4375 1.3825 2.4375 2.0625 C1.48875 2.371875 0.54 2.68125 -0.4375 3 C-3.42330408 3.93644742 -3.42330408 3.93644742 -5.5625 5.0625 C-3.15007962 0.07683121 -3.15007962 0.07683121 0 0 Z " fill="#3CB0B4" transform="translate(139.5625,71.9375)"/>
<path d="M0 0 C2.97 0 5.94 0 9 0 C8.67 0.99 8.34 1.98 8 3 C5.36 2.34 2.72 1.68 0 1 C0 0.67 0 0.34 0 0 Z " fill="#39A9B2" transform="translate(178,134)"/>
<path d="M0 0 C0.99 0.33 1.98 0.66 3 1 C3.33 3.97 3.66 6.94 4 10 C1.04816899 7.04816899 0.91336012 4.04488053 0 0 Z " fill="#4A909B" transform="translate(110,128)"/>
<path d="M0 0 C3.25543229 0.34879632 4.01873107 1.02133261 6.25 3.5625 C6.8275 4.366875 7.405 5.17125 8 6 C6.35 5.67 4.7 5.34 3 5 C2.67 4.01 2.34 3.02 2 2 C1.34 2 0.68 2 0 2 C0 1.34 0 0.68 0 0 Z " fill="#33B5BE" transform="translate(124,93)"/>
<path d="M0 0 C0 0.33 0 0.66 0 1 C-2.97 1 -5.94 1 -9 1 C-9 0.34 -9 -0.32 -9 -1 C-5.23375329 -2.25541557 -3.62811066 -1.37061958 0 0 Z " fill="#34A1B3" transform="translate(152,71)"/>
</svg>
